<?xml version="1.0" standalone="no"?>
<!DOCTYPE svg PUBLIC "-//W3C//DTD SVG 20010904//EN"
 "http://www.w3.org/TR/2001/REC-SVG-20010904/DTD/svg10.dtd">
<svg version="1.0" xmlns="http://www.w3.org/2000/svg"
 width="1024.000000pt" height="1024.000000pt" viewBox="0 0 1024.000000 1024.000000"
 preserveAspectRatio="xMidYMid meet">

<g transform="translate(0.000000,1024.000000) scale(0.100000,-0.100000)"
fill="#00a3e4" stroke="none">
<path d="M5050 8829 c-35 -14 -69 -48 -91 -91 -17 -34 -19 -61 -19 -276 0
-231 1 -240 23 -283 60 -113 226 -125 305 -21 l27 35 3 251 c2 138 0 261 -3
273 -8 33 -65 94 -102 109 -37 16 -107 17 -143 3z"/>
<path d="M3655 8456 c-81 -30 -139 -132 -116 -206 10 -35 195 -339 247 -407
30 -39 93 -72 139 -73 17 0 53 11 82 24 63 30 101 82 109 152 6 47 3 53 -78
189 -128 213 -176 282 -213 305 -44 27 -119 34 -170 16z"/>
<path d="M6447 8456 c-20 -8 -44 -19 -52 -26 -18 -15 -79 -108 -181 -275 -77
-127 -79 -131 -79 -196 0 -57 4 -71 29 -103 54 -72 124 -98 203 -75 66 18 98
56 229 273 94 155 114 196 114 228 0 79 -62 154 -145 177 -51 14 -71 13 -118
-3z"/>
<path d="M4980 7750 c-718 -63 -1333 -491 -1639 -1141 -70 -149 -118 -301
-146 -462 -69 -398 -21 -777 144 -1137 113 -246 206 -373 471 -645 209 -213
241 -254 295 -368 62 -130 77 -207 84 -442 8 -239 15 -266 84 -316 40 -29 41
-29 189 -29 l149 0 -4 393 c-3 363 -5 398 -25 475 -57 217 -159 358 -397 547
-206 163 -317 298 -421 510 -178 366 -207 746 -83 1131 84 263 288 551 521
738 287 230 684 351 1042 317 269 -25 489 -104 711 -255 114 -77 328 -290 414
-411 70 -100 156 -270 195 -385 193 -578 2 -1239 -469 -1618 -272 -218 -368
-344 -427 -560 -20 -71 -22 -107 -26 -480 l-4 -403 150 3 150 3 39 31 c74 60
77 72 84 324 8 248 19 312 81 433 57 115 109 178 307 375 207 207 258 266 342
403 143 235 234 489 275 769 20 140 15 435 -11 575 -57 318 -194 627 -380 860
-123 155 -332 348 -477 443 -172 111 -418 222 -596 267 -199 50 -437 71 -622
55z"/>
<path d="M2685 7521 c-107 -26 -166 -112 -150 -218 9 -62 42 -95 233 -232 208
-148 221 -155 285 -148 163 20 241 186 140 298 -54 60 -366 279 -420 295 -26
8 -49 14 -52 13 -3 -1 -19 -4 -36 -8z"/>
<path d="M7468 7515 c-45 -11 -78 -33 -311 -208 -129 -97 -147 -121 -147 -202
0 -109 105 -197 215 -180 31 4 71 25 134 68 345 237 343 236 349 332 3 53 0
65 -27 107 -47 74 -127 105 -213 83z"/>
<path d="M2202 5859 c-101 -50 -129 -192 -55 -280 53 -62 83 -69 323 -69 121
0 232 5 253 11 55 15 114 72 128 122 23 87 -16 178 -93 216 -41 20 -60 21
-279 21 -218 0 -237 -1 -277 -21z"/>
<path d="M7485 5861 c-48 -22 -69 -44 -90 -94 -34 -81 -6 -176 66 -224 l42
-28 228 -3 c246 -4 288 2 339 44 43 37 63 80 63 139 0 57 -18 97 -60 137 -47
44 -70 48 -316 48 -204 0 -237 -3 -272 -19z"/>
<path d="M4210 5751 c0 -6 31 -81 69 -168 38 -87 98 -228 134 -313 36 -85 125
-297 199 -470 l133 -315 3 -636 2 -637 23 -4 c12 -2 77 -2 144 0 l123 4 2 652
3 651 -36 110 c-36 107 -103 289 -228 620 -34 88 -61 163 -61 168 0 4 180 7
400 7 220 0 400 -3 400 -6 0 -9 -76 -216 -155 -424 -37 -96 -89 -237 -116
-313 l-49 -139 0 -664 0 -664 150 0 150 0 0 633 0 633 89 214 c90 218 387 929
422 1009 10 24 19 47 19 52 0 5 -398 9 -910 9 -562 0 -910 -4 -910 -9z"/>
<path d="M3135 4438 c-24 -14 -236 -173 -329 -246 -102 -81 -128 -157 -87
-248 29 -63 109 -114 181 -114 15 0 46 10 71 23 74 37 387 285 406 320 10 19
17 55 17 88 1 46 -5 64 -28 98 -40 58 -100 91 -162 91 -27 0 -58 -6 -69 -12z"/>
<path d="M6950 4431 c-98 -51 -131 -200 -64 -281 35 -40 362 -286 407 -305 48
-20 83 -19 137 6 56 25 77 44 101 91 35 69 24 131 -37 197 -42 48 -323 267
-374 293 -45 24 -125 23 -170 -1z"/>
<path d="M4288 2913 c-34 -4 -38 -7 -38 -33 0 -106 48 -192 131 -234 l53 -26
676 0 c409 0 689 4 709 10 98 28 161 110 169 221 l5 69 -834 -2 c-459 -1 -851
-3 -871 -5z"/>
<path d="M4291 2385 c18 -94 77 -182 152 -225 l52 -30 615 0 c382 0 629 4 651
10 83 23 170 137 185 243 l6 47 -835 0 -834 0 8 -45z"/>
<path d="M4650 1935 c0 -20 48 -93 94 -143 59 -63 136 -110 226 -136 65 -20
206 -22 276 -5 86 21 199 86 254 146 43 47 90 119 90 138 0 3 -211 5 -470 5
-258 0 -470 -2 -470 -5z"/>
</g>
</svg>
